HIERARCHY
ROOT mixamorig10:Hips
{
	OFFSET 0.000000 96.295143 0.000000
	CHANNELS 6 Xposition Yposition Zposition Xrotation Yrotation Zrotation
	JOINT mixamorig10:Spine
	{
		OFFSET 0.000000 10.067902 -1.090600
		CHANNELS 3 Xrotation Yrotation Zrotation
		JOINT mixamorig10:Spine1
		{
			OFFSET 0.000000 11.745880 -1.272423
			CHANNELS 3 Xrotation Yrotation Zrotation
			JOINT mixamorig10:Spine2
			{
				OFFSET 0.000000 13.423866 -1.454198
				CHANNELS 3 Xrotation Yrotation Zrotation
				JOINT mixamorig10:Neck
				{
					OFFSET 0.000000 15.101944 -1.635983
					CHANNELS 3 Xrotation Yrotation Zrotation
					JOINT mixamorig10:Head
					{
						OFFSET 0.000000 7.807297 2.258500
						CHANNELS 3 Xrotation Yrotation Zrotation
						JOINT mixamorig10:HeadTop_End
						{
							OFFSET 0.000000 21.619797 6.254200
							CHANNELS 3 Xrotation Yrotation Zrotation
							End Site
							{
								OFFSET 0.000000 22.506241 0.000000
							}
						}
					}
				}
				JOINT mixamorig10:LeftShoulder
				{
					OFFSET 7.096500 13.710800 -1.625296
					CHANNELS 3 Xrotation Yrotation Zrotation
					JOINT mixamorig10:LeftArm
					{
						OFFSET 14.342337 -2.708740 0.021386
						CHANNELS 3 Xrotation Yrotation Zrotation
						JOINT mixamorig10:LeftForeArm
						{
							OFFSET 26.107496 0.000000 0.000000
							CHANNELS 3 Xrotation Yrotation Zrotation
							JOINT mixamorig10:LeftHand
							{
								OFFSET 21.122604 0.000000 0.000000
								CHANNELS 3 Xrotation Yrotation Zrotation
								JOINT mixamorig10:LeftHandThumb1
								{
									OFFSET 3.773628 -1.309113 2.613102
									CHANNELS 3 Xrotation Yrotation Zrotation
									JOINT mixamorig10:LeftHandThumb2
									{
										OFFSET 2.957748 -1.707657 1.707656
										CHANNELS 3 Xrotation Yrotation Zrotation
										JOINT mixamorig10:LeftHandThumb3
										{
											OFFSET 2.617554 -1.511246 1.511245
											CHANNELS 3 Xrotation Yrotation Zrotation
											JOINT mixamorig10:LeftHandThumb4
											{
												OFFSET 2.129951 -1.229736 1.229729
												CHANNELS 3 Xrotation Yrotation Zrotation
												End Site
												{
													OFFSET 1.787674 -1.161758 1.736580
												}
											}
										}
									}
								}
								JOINT mixamorig10:LeftHandIndex1
								{
									OFFSET 10.921371 -0.285767 2.524735
									CHANNELS 3 Xrotation Yrotation Zrotation
									JOINT mixamorig10:LeftHandIndex2
									{
										OFFSET 3.342293 0.000000 0.000000
										CHANNELS 3 Xrotation Yrotation Zrotation
										JOINT mixamorig10:LeftHandIndex3
										{
											OFFSET 3.075104 0.000000 0.000000
											CHANNELS 3 Xrotation Yrotation Zrotation
											JOINT mixamorig10:LeftHandIndex4
											{
												OFFSET 2.704681 0.000000 0.000000
												CHANNELS 3 Xrotation Yrotation Zrotation
												End Site
												{
													OFFSET 2.704605 -0.000458 -0.020695
												}
											}
										}
									}
								}
								JOINT mixamorig10:LeftHandMiddle1
								{
									OFFSET 10.917091 0.000000 0.000000
									CHANNELS 3 Xrotation Yrotation Zrotation
									JOINT mixamorig10:LeftHandMiddle2
									{
										OFFSET 3.460953 0.000000 0.000000
										CHANNELS 3 Xrotation Yrotation Zrotation
										JOINT mixamorig10:LeftHandMiddle3
										{
											OFFSET 3.398254 0.000000 0.000000
											CHANNELS 3 Xrotation Yrotation Zrotation
											JOINT mixamorig10:LeftHandMiddle4
											{
												OFFSET 3.084198 0.000000 0.000000
												CHANNELS 3 Xrotation Yrotation Zrotation
												End Site
												{
													OFFSET 3.084198 0.000000 0.000100
												}
											}
										}
									}
								}
								JOINT mixamorig10:LeftHandRing1
								{
									OFFSET 11.033119 -0.035538 -2.257836
									CHANNELS 3 Xrotation Yrotation Zrotation
									JOINT mixamorig10:LeftHandRing2
									{
										OFFSET 2.872101 0.000000 0.000000
										CHANNELS 3 Xrotation Yrotation Zrotation
										JOINT mixamorig10:LeftHandRing3
										{
											OFFSET 2.704407 0.000000 0.000000
											CHANNELS 3 Xrotation Yrotation Zrotation
											JOINT mixamorig10:LeftHandRing4
											{
												OFFSET 2.336807 0.000000 0.000000
												CHANNELS 3 Xrotation Yrotation Zrotation
												End Site
												{
													OFFSET 2.336807 0.000122 0.004298
												}
											}
										}
									}
								}
								JOINT mixamorig10:LeftHandPinky1
								{
									OFFSET 9.710411 -0.277008 -4.352313
									CHANNELS 3 Xrotation Yrotation Zrotation
									JOINT mixamorig10:LeftHandPinky2
									{
										OFFSET 2.713760 0.000000 0.000000
										CHANNELS 3 Xrotation Yrotation Zrotation
										JOINT mixamorig10:LeftHandPinky3
										{
											OFFSET 2.227509 0.000000 0.000000
											CHANNELS 3 Xrotation Yrotation Zrotation
											JOINT mixamorig10:LeftHandPinky4
											{
												OFFSET 1.887939 0.000000 0.000000
												CHANNELS 3 Xrotation Yrotation Zrotation
												End Site
												{
													OFFSET 1.887901 -0.000336 -0.011795
												}
											}
										}
									}
								}
							}
						}
					}
				}
				JOINT mixamorig10:RightShoulder
				{
					OFFSET -7.096500 13.710800 -1.646719
					CHANNELS 3 Xrotation Yrotation Zrotation
					JOINT mixamorig10:RightArm
					{
						OFFSET -14.342340 -2.708725 -0.021382
						CHANNELS 3 Xrotation Yrotation Zrotation
						JOINT mixamorig10:RightForeArm
						{
							OFFSET -26.105303 0.000000 -0.000001
							CHANNELS 3 Xrotation Yrotation Zrotation
							JOINT mixamorig10:RightHand
							{
								OFFSET -21.123505 0.000000 -0.000000
								CHANNELS 3 Xrotation Yrotation Zrotation
								JOINT mixamorig10:RightHandThumb1
								{
									OFFSET -3.801468 -1.382233 2.623294
									CHANNELS 3 Xrotation Yrotation Zrotation
									JOINT mixamorig10:RightHandThumb2
									{
										OFFSET -2.987579 -1.724884 1.724880
										CHANNELS 3 Xrotation Yrotation Zrotation
										JOINT mixamorig10:RightHandThumb3
										{
											OFFSET -2.656494 -1.533722 1.533729
											CHANNELS 3 Xrotation Yrotation Zrotation
											JOINT mixamorig10:RightHandThumb4
											{
												OFFSET -2.122322 -1.225327 1.225322
												CHANNELS 3 Xrotation Yrotation Zrotation
												End Site
												{
													OFFSET -1.870781 -1.184326 1.613871
												}
											}
										}
									}
								}
								JOINT mixamorig10:RightHandIndex1
								{
									OFFSET -10.965469 -0.351395 2.517516
									CHANNELS 3 Xrotation Yrotation Zrotation
									JOINT mixamorig10:RightHandIndex2
									{
										OFFSET -3.277534 0.000000 0.000000
										CHANNELS 3 Xrotation Yrotation Zrotation
										JOINT mixamorig10:RightHandIndex3
										{
											OFFSET -3.135506 0.000000 0.000000
											CHANNELS 3 Xrotation Yrotation Zrotation
											JOINT mixamorig10:RightHandIndex4
											{
												OFFSET -2.691025 0.000000 0.000000
												CHANNELS 3 Xrotation Yrotation Zrotation
												End Site
												{
													OFFSET -2.691002 -0.000107 -0.011300
												}
											}
										}
									}
								}
								JOINT mixamorig10:RightHandMiddle1
								{
									OFFSET -11.192451 0.000000 -0.000000
									CHANNELS 3 Xrotation Yrotation Zrotation
									JOINT mixamorig10:RightHandMiddle2
									{
										OFFSET -3.472412 0.000000 0.000000
										CHANNELS 3 Xrotation Yrotation Zrotation
										JOINT mixamorig10:RightHandMiddle3
										{
											OFFSET -3.267532 0.000000 0.000000
											CHANNELS 3 Xrotation Yrotation Zrotation
											JOINT mixamorig10:RightHandMiddle4
											{
												OFFSET -2.878006 0.000000 0.000000
												CHANNELS 3 Xrotation Yrotation Zrotation
												End Site
												{
													OFFSET -2.877998 0.000061 0.006000
												}
											}
										}
									}
								}
								JOINT mixamorig10:RightHandRing1
								{
									OFFSET -10.815025 -0.118790 -2.175731
									CHANNELS 3 Xrotation Yrotation Zrotation
									JOINT mixamorig10:RightHandRing2
									{
										OFFSET -2.926300 0.000000 0.000000
										CHANNELS 3 Xrotation Yrotation Zrotation
										JOINT mixamorig10:RightHandRing3
										{
											OFFSET -2.814911 0.000000 0.000000
											CHANNELS 3 Xrotation Yrotation Zrotation
											JOINT mixamorig10:RightHandRing4
											{
												OFFSET -2.494705 0.000000 0.000000
												CHANNELS 3 Xrotation Yrotation Zrotation
												End Site
												{
													OFFSET -2.494698 0.000107 0.005699
												}
											}
										}
									}
								}
								JOINT mixamorig10:RightHandPinky1
								{
									OFFSET -9.608459 -0.305069 -4.345866
									CHANNELS 3 Xrotation Yrotation Zrotation
									JOINT mixamorig10:RightHandPinky2
									{
										OFFSET -2.717850 0.000000 0.000000
										CHANNELS 3 Xrotation Yrotation Zrotation
										JOINT mixamorig10:RightHandPinky3
										{
											OFFSET -2.294006 0.000000 0.000000
											CHANNELS 3 Xrotation Yrotation Zrotation
											JOINT mixamorig10:RightHandPinky4
											{
												OFFSET -1.957932 0.000000 0.000000
												CHANNELS 3 Xrotation Yrotation Zrotation
												End Site
												{
													OFFSET -1.957901 -0.000137 -0.010399
												}
											}
										}
									}
								}
							}
						}
					}
				}
			}
		}
	}
	JOINT mixamorig10:LeftUpLeg
	{
		OFFSET 8.712000 -5.586098 -0.097500
		CHANNELS 3 Xrotation Yrotation Zrotation
		JOINT mixamorig10:LeftLeg
		{
			OFFSET 0.818693 -40.485188 -3.430391
			CHANNELS 3 Xrotation Yrotation Zrotation
			JOINT mixamorig10:LeftFoot
			{
				OFFSET -0.818688 -37.669312 -2.944613
				CHANNELS 3 Xrotation Yrotation Zrotation
				JOINT mixamorig10:LeftToeBase
				{
					OFFSET 1.471696 -10.315093 14.016142
					CHANNELS 3 Xrotation Yrotation Zrotation
					JOINT mixamorig10:LeftToe_End
					{
						OFFSET 0.357836 0.325081 6.821591
						CHANNELS 3 Xrotation Yrotation Zrotation
						End Site
						{
							OFFSET 0.357836 0.325081 6.821590
						}
					}
				}
			}
		}
	}
	JOINT mixamorig10:RightUpLeg
	{
		OFFSET -8.712000 -5.586098 -0.274400
		CHANNELS 3 Xrotation Yrotation Zrotation
		JOINT mixamorig10:RightLeg
		{
			OFFSET -0.818686 -40.485229 -3.209567
			CHANNELS 3 Xrotation Yrotation Zrotation
			JOINT mixamorig10:RightFoot
			{
				OFFSET 0.818683 -37.669243 -2.964876
				CHANNELS 3 Xrotation Yrotation Zrotation
				JOINT mixamorig10:RightToeBase
				{
					OFFSET -1.471738 -10.315439 14.489844
					CHANNELS 3 Xrotation Yrotation Zrotation
					JOINT mixamorig10:RightToe_End
					{
						OFFSET -0.357861 0.324883 7.205909
						CHANNELS 3 Xrotation Yrotation Zrotation
						End Site
						{
							OFFSET -0.357861 0.324883 7.205910
						}
					}
				}
			}
		}
	}
}
MOTION
Frames: 4
Frame Time: 0.033333
-26.532734 64.665359 12.613275 -8.289626 -0.515255 -7.746170 12.522809 0.445210 2.112404 1.952207 0.169800 0.505143 1.953109 0.169475 0.492342 -2.891756 -1.507201 6.556226 -2.891754 -1.507201 6.556226 -0.000000 0.000000 -0.000001 0.007072 1.539035 2.601784 -14.666322 -21.698454 -76.441654 -0.000001 -59.414306 0.000003 41.099109 6.221687 33.900152 -0.631293 6.098494 -5.248227 7.944501 22.978119 -2.361599 -4.904082 -18.413864 6.041302 -0.000002 -0.000001 0.000002 0.391751 -3.046766 8.748263 -0.000006 -0.000006 -0.000009 0.000929 -0.113701 0.942124 0.000001 0.000000 0.000001 -0.144527 0.818757 6.843022 0.732502 3.095362 -26.621835 0.091257 1.119579 -9.319399 0.000000 -0.000001 0.000002 0.035752 2.460825 -0.708587 0.157588 1.467587 -12.256847 0.157007 1.464918 -12.234115 -0.000002 0.000001 0.000000 -1.217463 2.716800 18.103020 0.336444 -1.929884 -18.413767 0.028254 0.624489 -5.181998 -0.000000 0.000000 -0.000000 0.094469 -7.825835 4.164750 -14.705647 19.927205 76.101182 0.000026 70.925859 -0.000019 39.071319 -14.160634 2.004839 -6.148720 9.554065 -15.332624 9.514617 -6.589886 2.498299 -8.990339 4.908326 -4.287508 0.000003 0.000003 0.000000 0.605741 3.460881 -12.602625 0.000011 -0.006887 0.056458 0.055988 0.882374 -7.260492 0.000001 -0.000001 -0.000000 1.344961 5.659702 -15.816147 0.009022 -0.354859 2.912966 0.073919 -1.013283 8.345072 -0.000000 -0.000001 0.000001 0.449916 3.190574 -9.738133 0.009961 -0.372823 3.060758 0.150305 -1.440834 11.911040 0.000002 -0.000000 -0.000001 -1.668388 -4.439111 -17.376450 0.000005 -0.000338 0.002875 0.088594 -1.108709 9.137524 -0.000000 0.000004 0.000000 -75.729743 -7.166012 10.061891 79.974098 -3.029076 1.827658 3.467812 -0.181914 -3.244862 -2.787703 -0.000001 0.000003 -0.000000 0.000001 0.000001 -72.033299 -7.944741 -11.536639 78.814072 -3.174175 2.391721 -0.450426 0.295033 -0.824335 0.723312 -0.000005 -0.000001 0.000000 0.000000 0.000000 
-26.288334 64.648232 12.523212 -8.439700 -0.600509 -8.162272 12.547861 0.322717 2.227595 1.968309 0.137534 0.516841 1.969291 0.137243 0.504490 -2.632677 -1.499243 6.464228 -2.632668 -1.499242 6.464233 -0.000000 0.000000 -0.000001 0.018037 1.473374 2.519572 -14.533384 -21.770678 -76.318020 -0.000009 -59.577500 0.000025 40.883323 6.437235 34.494846 -0.145097 6.427518 -4.991489 8.024392 23.209353 -2.419351 -4.671031 -16.765063 5.751507 -0.000003 -0.000007 -0.000003 0.285086 -2.807145 6.661426 0.000018 0.021060 -0.174565 0.001617 -0.148891 1.234029 0.000001 0.000001 0.000001 -0.117551 1.026473 5.161731 0.738515 3.107323 -26.733053 0.073529 1.005629 -8.363509 0.000001 0.000000 -0.000000 0.086055 2.501568 -1.938959 0.156405 1.462151 -12.210798 0.157014 1.464887 -12.234120 -0.000001 0.000000 0.000001 -1.109673 2.654885 17.113404 0.336096 -1.930883 -18.404968 0.028748 0.629886 -5.226818 -0.000001 -0.000000 -0.000000 0.067617 -7.849575 3.903308 -15.251870 20.145868 76.499437 0.000051 69.323599 -0.000059 39.018900 -13.327107 0.688705 -6.104302 9.453213 -15.363582 9.730265 -6.659568 2.595261 -9.120270 5.238844 -4.291263 -0.000002 0.000005 -0.000001 0.433520 3.056597 -9.954238 -0.000007 0.000006 0.000102 0.060992 0.920801 -7.578529 0.000001 0.000002 0.000001 1.269626 5.593547 -15.009788 0.010848 -0.389186 3.195200 0.069912 -0.985557 8.115040 -0.000000 -0.000001 -0.000000 0.391926 2.848736 -9.807209 0.010019 -0.374019 3.070497 0.149074 -1.434916 11.861280 0.000001 0.000000 -0.000001 -1.500296 -3.151766 -19.486996 0.000002 0.000008 -0.000003 0.101512 -1.186209 9.782308 0.000005 0.000001 -0.000001 -75.686965 -7.474679 10.052298 80.062637 -2.981050 1.930360 3.627999 -0.183552 -3.386793 -2.887649 0.000003 0.000002 -0.000000 -0.000000 0.000001 -71.826454 -8.067340 -11.273716 78.674101 -4.072893 2.434664 -0.711410 0.301043 -0.670549 1.132358 -0.000009 0.000001 0.000000 0.000001 0.000001 
-26.050835 64.632202 12.428853 -8.676439 -0.653317 -8.385818 12.683487 0.186919 2.225776 1.984664 0.110086 0.515303 1.985658 0.109811 0.503112 -2.365737 -1.476806 6.234118 -2.365720 -1.476809 6.234127 -0.000000 -0.000000 -0.000001 0.036142 1.371087 2.368816 -14.452986 -21.668027 -76.187475 -0.000022 -59.720517 -0.000017 40.606212 6.420154 35.235443 0.442448 6.847084 -4.542946 8.166286 23.615541 -2.521844 -4.359702 -14.773347 5.405663 -0.000002 -0.000003 -0.000000 0.148524 -2.420170 3.770935 0.001437 0.140958 -1.168180 0.002330 -0.179512 1.487717 -0.000002 0.000001 0.000001 -0.073811 1.222942 3.120361 0.752807 3.135484 -26.995508 0.056011 0.878206 -7.297328 -0.000003 -0.000001 0.000002 0.146591 2.526881 -3.510021 0.156801 1.463961 -12.226197 0.157012 1.464905 -12.234121 0.000001 -0.000001 0.000002 -0.981099 2.585471 15.835261 0.341737 -1.914038 -18.551916 0.027740 0.618686 -5.133667 0.000001 0.000000 -0.000000 0.039625 -7.901236 3.653423 -15.937958 20.223273 77.001244 0.000046 67.771903 -0.000056 38.986566 -12.593902 -0.684655 -6.061624 9.345460 -15.377671 10.081709 -6.771313 2.752893 -9.249011 5.567253 -4.294860 0.000001 0.000001 -0.000001 0.312584 2.794516 -7.534530 0.000016 0.000016 -0.000029 0.063382 0.938584 -7.725805 -0.000000 0.000000 -0.000000 1.186569 5.550681 -13.994047 0.010495 -0.382684 3.141913 0.067830 -0.970840 7.992979 -0.000001 0.000000 -0.000000 0.334305 2.534495 -9.712788 0.010037 -0.374249 3.072479 0.148295 -1.431296 11.830834 0.000001 -0.000000 -0.000001 -1.259107 -2.151641 -20.612847 0.000001 0.000005 0.000080 0.114693 -1.260246 10.399682 -0.000001 0.000001 -0.000000 -75.518622 -7.607420 9.950801 80.111487 -2.893157 2.011755 3.731432 -0.185544 -3.459947 -2.944454 -0.000001 0.000003 -0.000000 -0.000000 0.000001 -71.527476 -7.996405 -11.076903 78.482480 -4.309330 2.381962 -0.522479 0.282574 -0.318197 1.118019 -0.000005 0.000001 0.000000 -0.000002 0.000001 
-25.843094 64.612717 12.328854 -8.948557 -0.655928 -8.564110 12.917234 0.020308 2.248021 2.009567 0.076547 0.513391 2.010572 0.076239 0.501325 -2.180591 -1.427889 5.879401 -2.180587 -1.427892 5.879404 -0.000000 -0.000000 0.000000 0.051074 1.311280 2.200298 -14.423164 -21.275402 -76.161151 0.000031 -59.823749 0.000036 40.196695 5.719686 36.388359 1.090933 7.399525 -3.963907 8.358386 24.156419 -2.660264 -3.981836 -12.592322 5.030337 -0.000004 0.000000 -0.000003 0.020444 -1.927301 0.508860 0.004490 0.249294 -2.066085 0.003106 -0.207107 1.716319 0.000001 0.000000 0.000000 -0.021961 1.394629 0.976190 0.771301 3.171479 -27.331654 0.045258 0.789830 -6.559649 -0.000003 0.000001 0.000001 0.206218 2.539611 -5.195070 0.160773 1.482203 -12.380829 0.157012 1.464908 -12.234113 0.000001 -0.000001 0.000003 -0.859807 2.584165 14.332059 0.348700 -1.893378 -18.732279 0.025889 0.597708 -4.959260 -0.000000 -0.000000 0.000000 0.012264 -7.911669 3.397110 -16.715604 20.220679 77.590184 -0.000020 66.254884 0.000016 38.734020 -11.873452 -2.491441 -6.042401 9.267787 -15.340533 10.481202 -6.895604 2.931510 -9.381242 5.905358 -4.298431 -0.000000 0.000003 -0.000001 0.214800 2.562244 -5.396398 -0.000003 -0.000043 0.000410 0.063356 0.938386 -7.724132 -0.000003 0.000001 0.000001 1.113804 5.515254 -13.096237 0.009851 -0.370729 3.043470 0.067157 -0.966055 7.953332 0.000003 0.000001 -0.000000 0.295346 2.309463 -9.720741 0.010010 -0.373901 3.069784 0.149127 -1.435262 11.864273 -0.000001 -0.000000 0.000001 -1.047340 -1.429191 -21.282736 -0.000004 0.000000 -0.000036 0.126959 -1.325294 10.943220 -0.000001 -0.000000 -0.000000 -75.313504 -7.704088 9.845082 80.130304 -2.878340 2.086130 3.897052 -0.187272 -3.586337 -3.041400 -0.000001 0.000001 -0.000001 -0.000001 0.000000 -71.211655 -7.905602 -10.945914 78.314922 -4.441806 2.314542 -0.254798 0.256598 0.140041 1.012156 -0.000007 -0.000000 -0.000000 -0.000000 0.000000 
